Coordinates
version=1
nRows=9
nColumns=36
inDegrees=yes

Units are S.I. units (second, meters, Newtons, ...)
If the header above contains a line with 'inDegrees', this indicates whether rotational values are in degrees (yes) or radians (no).

endheader
time	pelvis_tilt	pelvis_list	pelvis_rotation	pelvis_tx	pelvis_ty	pelvis_tz	hip_flexion_r	hip_adduction_r	hip_rotation_r	knee_angle_r	knee_angle_r_beta	ankle_angle_r	subtalar_angle_r	mtp_angle_r	hip_flexion_l	hip_adduction_l	hip_rotation_l	knee_angle_l	knee_angle_l_beta	ankle_angle_l	subtalar_angle_l	mtp_angle_l	lumbar_extension	lumbar_bending	lumbar_rotation	arm_flex_r	arm_add_r	arm_rot_r	elbow_flex_r	pro_sup_r	arm_flex_l	arm_add_l	arm_rot_l	elbow_flex_l	pro_sup_l
      3.10833330	     -4.57045613	     -1.42208796	      5.87079354	      0.08260784	      0.78128455	     -0.09426079	     53.74846379	     -7.40937026	     -0.05926287	     65.16970267	      1.13742588	     11.57842572	     -8.14234420	     -7.49999987	     55.10116845	     -5.12300251	      4.29017490	     62.71819908	      1.09463907	      0.63466626	    -22.47999525	     -7.49999987	    -34.23529190	     -0.34613567	      4.60043985	    -17.69513552	    -26.58137421	    -14.67453619	    111.88489499	     86.56673938	     12.66434393	    -32.13628136	    -21.30275900	    135.48012571	     84.48827207
      3.11250000	     -4.04407446	     -1.29197191	      5.98536030	      0.08405766	      0.77697568	     -0.09567765	     54.32649677	     -7.46456175	      0.52046855	     67.36554270	      1.17575052	     11.95642852	     -8.48618962	     -7.49999987	     55.84475649	     -4.68964039	      4.60469028	     65.13362117	      1.13679614	      1.36697884	    -22.80735973	     -7.49999987	    -35.16457861	     -0.45121515	      4.29138977	    -15.51686975	    -26.29948607	    -14.20051771	    110.19004630	     85.21199171	     13.63863716	    -30.49456789	    -20.02759061	    135.31361833	     83.25438054
      3.11666670	     -3.12564277	     -1.09883644	      6.13221249	      0.08659622	      0.77435106	     -0.09694515	     54.40369706	     -7.67211953	      0.96572173	     69.47524423	      1.21257176	     12.36289862	     -8.62853502	     -7.49999987	     55.87989607	     -4.23075243	      4.86590892	     67.07411059	      1.17066407	      1.33298365	    -23.60568481	     -7.49999987	    -37.30904899	     -0.60398398	      4.01937933	    -13.37512457	    -26.24629247	    -14.06009779	    109.36337021	     85.38031996	     15.30675191	    -29.17029799	    -19.25897247	    136.01971393	     83.54637391
      3.12083330	     -2.09880463	     -0.90702598	      6.34545423	      0.08703054	      0.76942097	     -0.09691810	     54.29785863	     -7.74470686	      1.33060090	     71.31766386	      1.24472805	     12.72781235	     -8.86971426	     -7.49999987	     55.85218614	     -3.78194127	      5.08209200	     68.90314141	      1.20258668	      1.28171707	    -24.57133800	     -7.49999987	    -39.64061332	     -0.83468841	      4.18221049	    -11.36728929	    -26.37223086	    -14.42642551	    108.22325108	     86.45176975	     18.26928731	    -28.36954227	    -16.78370019	    135.63496527	     85.40073545
      3.12500000	     -1.74715618	     -0.91701444	      6.51279619	      0.08404940	      0.76329158	     -0.09802795	     55.18970951	     -7.90720405	      1.60136808	     73.30203142	      1.27936180	     12.55947082	     -9.57770791	     -7.49999987	     56.79743997	     -3.44238415	      5.38444984	     70.75097937	      1.23483754	      1.06443644	    -25.27384271	     -7.49999987	    -41.67815995	     -0.83941671	      4.02888494	     -8.82262744	    -26.66984715	    -14.33561173	    107.30171218	     85.46842110	     20.47918725	    -27.35034813	    -15.84127264	    135.90820475	     84.50379451
      3.12916670	     -1.29483819	     -0.79012334	      6.54771034	      0.08676076	      0.75462246	     -0.09565811	     56.11053234	     -7.91760167	      2.09576878	     75.46770263	      1.31715989	     12.47295158	    -10.18342873	     -7.49999987	     57.54600319	     -3.32294794	      5.51824954	     72.61160061	      1.26731151	      1.26389272	    -25.66474404	     -7.49999987	    -43.97562566	     -0.86380216	      4.01606775	     -6.57687548	    -27.14146864	    -14.79935906	    107.15740425	     85.64862606	     22.59984504	    -26.40273700	    -15.10541950	    136.30894980	     84.66201750
      3.13333330	     -1.32990512	     -0.68927230	      6.63764124	      0.08549713	      0.75238347	     -0.09647322	     57.22970676	     -7.88657698	      2.48773368	     77.08008361	      1.34530125	     12.14681430	    -10.68292908	     -7.49999987	     58.57628355	     -3.05994689	      5.63055745	     73.96890233	      1.29100089	      1.10723045	    -25.91849822	     -7.49999987	    -45.89101172	     -0.75916283	      4.02952225	     -4.27585962	    -27.59433770	    -15.09256336	    107.21811472	     85.17772053	     24.86206505	    -25.52246324	    -14.13255565	    136.37156460	     84.14869623
      3.13750000	     -1.47182774	     -0.65958303	      6.56344820	      0.08892235	      0.74454540	     -0.09606319	     58.40580641	     -7.74437731	      2.81571505	     78.70577544	      1.37367492	     12.31156111	    -11.03229738	     -7.49999987	     59.66177580	     -3.05453457	      5.82019616	     75.48481969	      1.31745864	      1.16599675	    -26.00098632	     -7.49999987	    -47.52264388	     -0.61627522	      3.96947490	     -2.10718961	    -27.97578983	    -15.31484911	    107.46315645	     85.30670679	     26.71149162	    -24.66924572	    -13.81256190	    136.40060948	     84.19321451
      3.14166670	     -1.76989283	     -0.50904217	      6.28883349	      0.09576207	      0.74014118	     -0.09853157	     59.41448111	     -7.62269501	      3.30263161	     79.99866659	      1.39624013	     12.35174142	    -11.44752469	     -7.49999987	     60.56018478	     -2.96352694	      5.80099690	     76.95296266	      1.34308257	      1.33700116	    -26.29880568	     -7.49999987	    -48.93081295	     -0.55616248	      4.06497467	      0.06388475	    -28.11054329	    -15.44726986	    107.62517833	     85.47678029	     27.71731750	    -23.20096369	    -13.41014753	    136.34701686	     84.24585815
